<svg xmlns="http://www.w3.org/2000/svg" width="20.05" height="7.47" viewBox="0 0 20.05 7.47">
  <path id="Path_884" data-name="Path 884" d="M-8.33-3.54a3.907,3.907,0,0,1,.105-.91,2.41,2.41,0,0,1,.335-.785,1.7,1.7,0,0,1,.6-.55,1.833,1.833,0,0,1,.9-.2,1.833,1.833,0,0,1,.9.2,1.7,1.7,0,0,1,.6.55,2.41,2.41,0,0,1,.335.785,3.907,3.907,0,0,1,.105.91,3.635,3.635,0,0,1-.105.875A2.365,2.365,0,0,1-4.89-1.9a1.717,1.717,0,0,1-.6.545,1.833,1.833,0,0,1-.9.205,1.833,1.833,0,0,1-.9-.205,1.717,1.717,0,0,1-.6-.545,2.365,2.365,0,0,1-.335-.765A3.635,3.635,0,0,1-8.33-3.54Zm-1.57,0a4.312,4.312,0,0,0,.24,1.455A3.475,3.475,0,0,0-8.97-.91a3.161,3.161,0,0,0,1.1.785A3.661,3.661,0,0,0-6.39.16,3.652,3.652,0,0,0-4.91-.125,3.172,3.172,0,0,0-3.81-.91a3.475,3.475,0,0,0,.69-1.175A4.312,4.312,0,0,0-2.88-3.54a4.461,4.461,0,0,0-.24-1.485A3.567,3.567,0,0,0-3.81-6.22a3.166,3.166,0,0,0-1.1-.8,3.6,3.6,0,0,0-1.48-.29,3.606,3.606,0,0,0-1.475.29,3.155,3.155,0,0,0-1.1.8,3.567,3.567,0,0,0-.69,1.195A4.461,4.461,0,0,0-9.9-3.54Zm9.66-.24V-5.92H.98a3.288,3.288,0,0,1,.52.04,1.21,1.21,0,0,1,.44.155.844.844,0,0,1,.3.325,1.142,1.142,0,0,1,.115.55,1.142,1.142,0,0,1-.115.55.844.844,0,0,1-.3.325,1.21,1.21,0,0,1-.44.155,3.288,3.288,0,0,1-.52.04ZM-1.81-7.14V0H-.24V-2.56H1.41a2.974,2.974,0,0,0,1.14-.195,2.133,2.133,0,0,0,.765-.515,1.972,1.972,0,0,0,.43-.735A2.715,2.715,0,0,0,3.88-4.85a2.7,2.7,0,0,0-.135-.85,1.978,1.978,0,0,0-.43-.73,2.133,2.133,0,0,0-.765-.515A2.974,2.974,0,0,0,1.41-7.14ZM6.44-5.82V0H8.01V-5.82h2.14V-7.14H4.3v1.32Z" transform="translate(9.9 7.31)" fill="#707376"/>
</svg>
