<svg xmlns="http://www.w3.org/2000/svg" width="18.94" height="7.14" viewBox="0 0 18.94 7.14">
  <path id="Path_881" data-name="Path 881" d="M-7.65-1.32v-4.5h1.12a2.535,2.535,0,0,1,.975.165,1.53,1.53,0,0,1,.635.475,1.945,1.945,0,0,1,.345.745,4.163,4.163,0,0,1,.105.975,2.926,2.926,0,0,1-.15,1,1.834,1.834,0,0,1-.4.665,1.453,1.453,0,0,1-.57.365,2.016,2.016,0,0,1-.66.11ZM-9.22-7.14V0h3.08A3.418,3.418,0,0,0-4.715-.275,2.835,2.835,0,0,0-3.7-1.03a3.169,3.169,0,0,0,.6-1.14,4.946,4.946,0,0,0,.2-1.44,4.449,4.449,0,0,0-.245-1.55,3.047,3.047,0,0,0-.68-1.1,2.789,2.789,0,0,0-1.03-.66A3.677,3.677,0,0,0-6.14-7.14Zm7.41,0V0H3.61V-1.32H-.24V-3.07H3.22V-4.29H-.24V-5.82H3.53V-7.14Zm6.48,0V0H9.72V-1.32H6.24V-7.14Z" transform="translate(9.22 7.14)" fill="#ff423d"/>
</svg>
