<svg xmlns="http://www.w3.org/2000/svg" width="53.179" height="53.179" viewBox="0 0 53.179 53.179">
  <g id="Group_1316" data-name="Group 1316" transform="translate(-5 -5)">
    <rect id="Rectangle_1276" data-name="Rectangle 1276" width="53.179" height="53.179" transform="translate(5 5)" fill="#fff" opacity="0"/>
    <g id="Group_1314" data-name="Group 1314" transform="translate(9.618 10.086)">
      <path id="Path_917" data-name="Path 917" d="M28.934,37.4A3.305,3.305,0,1,0,25.629,34.1,3.309,3.309,0,0,0,28.934,37.4Zm0-4.49A1.184,1.184,0,1,1,27.75,34.1,1.185,1.185,0,0,1,28.934,32.913Z" transform="translate(-22.265 -25.281)" fill="#424242"/>
      <path id="Path_918" data-name="Path 918" d="M27.789,53.474a1.061,1.061,0,0,0-1.061,1.061V65.882a1.061,1.061,0,0,0,2.121,0V54.534A1.061,1.061,0,0,0,27.789,53.474Z" transform="translate(-22.807 -36.473)" fill="#424242"/>
      <path id="Path_919" data-name="Path 919" d="M34.453,53.474a1.061,1.061,0,0,0-1.061,1.061v4.773a1.061,1.061,0,0,0,2.121,0V54.535A1.061,1.061,0,0,0,34.453,53.474Z" transform="translate(-26.096 -36.473)" fill="#424242"/>
      <path id="Path_920" data-name="Path 920" d="M42.484,20.65H20.049a1.061,1.061,0,0,0-1.061,1.061V62.245a1.061,1.061,0,0,0,1.061,1.061H27a4.456,4.456,0,0,0,3.2-1.228l0,.167a1.061,1.061,0,0,0,1.061,1.061h6.957a5.328,5.328,0,0,0,5.322-5.321V27.35l8.879,35.9a1.058,1.058,0,0,0,1.029.805,1.086,1.086,0,0,0,.255-.031l6.752-1.67a5.33,5.33,0,0,0,3.889-6.441L56.482,24.1a1.061,1.061,0,1,0-2.06.509L62.29,56.426A3.211,3.211,0,0,1,59.951,60.3l-5.723,1.415L45.007,24.425,54.812,22a1.06,1.06,0,1,0-.509-2.059L43.545,22.6v-.892A1.061,1.061,0,0,0,42.484,20.65ZM30.2,57.984a3.2,3.2,0,0,1-3.2,3.2h-5.9V22.771h9.1Zm11.218,0a3.2,3.2,0,0,1-3.2,3.2h-5.9V22.771h9.1Z" transform="translate(-18.988 -19.911)" fill="#424242"/>
      <path id="Path_921" data-name="Path 921" d="M51.079,37.4A3.305,3.305,0,1,0,47.773,34.1,3.309,3.309,0,0,0,51.079,37.4Zm0-4.49A1.184,1.184,0,1,1,49.894,34.1,1.185,1.185,0,0,1,51.079,32.913Z" transform="translate(-33.192 -25.281)" fill="#424242"/>
      <path id="Path_922" data-name="Path 922" d="M49.933,53.474a1.061,1.061,0,0,0-1.061,1.061V65.882a1.061,1.061,0,0,0,2.121,0V54.534A1.06,1.06,0,0,0,49.933,53.474Z" transform="translate(-33.734 -36.473)" fill="#424242"/>
      <path id="Path_923" data-name="Path 923" d="M56.6,53.474a1.061,1.061,0,0,0-1.061,1.061v4.773a1.061,1.061,0,1,0,2.121,0V54.535A1.06,1.06,0,0,0,56.6,53.474Z" transform="translate(-37.024 -36.473)" fill="#424242"/>
      <path id="Path_924" data-name="Path 924" d="M78.672,31.556a3.324,3.324,0,0,0-.8.1,3.3,3.3,0,1,0,.8-.1Zm.283,4.456a1.193,1.193,0,0,1-1.435-.867,1.185,1.185,0,0,1,.866-1.434,1.214,1.214,0,0,1,.286-.034,1.185,1.185,0,0,1,.283,2.335Z" transform="translate(-46.807 -25.657)" fill="#424242"/>
      <path id="Path_925" data-name="Path 925" d="M81.748,54.537a1.06,1.06,0,0,0-.775,1.284L83.7,66.837a1.061,1.061,0,0,0,2.06-.51L83.032,55.312A1.062,1.062,0,0,0,81.748,54.537Z" transform="translate(-49.56 -36.982)" fill="#424242"/>
      <path id="Path_926" data-name="Path 926" d="M89.874,59.628a1.06,1.06,0,0,0,.775-1.284L89.5,53.712a1.061,1.061,0,0,0-2.06.51l1.146,4.632a1.056,1.056,0,0,0,1.284.775Z" transform="translate(-52.753 -36.193)" fill="#424242"/>
    </g>
  </g>
</svg>
