<svg xmlns="http://www.w3.org/2000/svg" width="62.793" height="52.518" viewBox="0 0 62.793 52.518">
  <path id="open-archive_scuro" data-name="open-archive scuro" d="M62.094,40.508a4.154,4.154,0,0,0-3.469-1.664H53.091V32.825a4.211,4.211,0,0,0-4.207-4.207h-19.4a3.934,3.934,0,0,1-2.6-1.32l-1.452-1.986a7.242,7.242,0,0,0-5.354-2.718H13.354a5.464,5.464,0,0,0-4.943,3.5L7.949,27.4a2.118,2.118,0,0,1-1.727,1.221H4.207A4.211,4.211,0,0,0,0,32.825V70.814a1.7,1.7,0,0,0,.1.573,3.839,3.839,0,0,0,.694,2.061,4.153,4.153,0,0,0,3.469,1.664H47.122a6.877,6.877,0,0,0,6.147-4.361l9.249-26.419A4.154,4.154,0,0,0,62.094,40.508ZM4.207,32.029H6.222a5.463,5.463,0,0,0,4.943-3.5l.462-1.307A2.118,2.118,0,0,1,13.354,26h6.722a3.935,3.935,0,0,1,2.6,1.32l1.452,1.986a7.241,7.241,0,0,0,5.354,2.718h19.4a.806.806,0,0,1,.8.8v6.019H15.767A6.877,6.877,0,0,0,9.619,43.2L3.411,60.939V32.825A.807.807,0,0,1,4.207,32.029ZM59.3,43.2,50.05,69.624A3.473,3.473,0,0,1,47.122,71.7H4.264a.858.858,0,0,1-.687-.227.858.858,0,0,1,.013-.723l9.249-26.419a3.473,3.473,0,0,1,2.928-2.077H58.626a.61.61,0,0,1,.674.95Z" transform="translate(0 -22.594)" fill="#424242"/>
</svg>
