<svg id="generate_scuro" data-name="generate scuro" xmlns="http://www.w3.org/2000/svg" width="85.887" height="72.836" viewBox="0 0 85.887 72.836">
  <path id="Path_598" data-name="Path 598" d="M72.836,22.927C71.778,10.052,61.2,0,48.5,0A25.6,25.6,0,0,0,28.746,9.7c-.353-.176-.529-.353-.882-.353l-.529-.176c-.353-.176-.529-.176-.882-.353h-.529c-.353,0-.705-.176-1.058-.176h-1.94A13.021,13.021,0,0,0,9.876,21.692v.353A19.214,19.214,0,0,0,0,38.8,18.515,18.515,0,0,0,18.518,57.317h7.231a1.94,1.94,0,0,0,0-3.88H18.518A14.9,14.9,0,0,1,3.7,38.623a16.457,16.457,0,0,1,8.818-14.109l1.058-.529V21.339A9.484,9.484,0,0,1,23.1,11.816a3.443,3.443,0,0,1,1.235.176h.353c.353,0,.705.176,1.058.176h.176c.353.176.705.176,1.058.353.176,0,.176.176.353.176a3.855,3.855,0,0,1,.882.529,9.727,9.727,0,0,1,4.409,7.936,1.94,1.94,0,1,0,3.88,0,12.865,12.865,0,0,0-4.409-9.7A21.667,21.667,0,0,1,48.851,3.351c10.405,0,19.223,8.113,20.458,18.694-1.411,0-3.351,0-5.291.176a1.785,1.785,0,0,0-1.235.705,1.9,1.9,0,0,0-.353,1.411,1.822,1.822,0,0,0,2.116,1.587,23.384,23.384,0,0,1,6.525,0A13.967,13.967,0,0,1,82.183,39.5,13.774,13.774,0,0,1,68.427,53.26H62.784a1.94,1.94,0,0,0,0,3.88h5.643a17.5,17.5,0,0,0,17.46-17.46A18.518,18.518,0,0,0,72.836,22.927Z" fill="#424242"/>
  <path id="Path_599" data-name="Path 599" d="M40.7,42.492,32.59,50.6V22.74a1.957,1.957,0,0,0-1.94-1.94,1.813,1.813,0,0,0-1.764,1.94V50.781l-8.113-8.112a1.81,1.81,0,1,0-2.645,2.469L29.416,56.424c.176.176.353.353.529.353a1.5,1.5,0,0,0,1.411,0c.176-.176.353-.176.529-.353L43.172,45.138a1.7,1.7,0,0,0,0-2.469A1.579,1.579,0,0,0,40.7,42.492Z" transform="translate(13.439 15.883)" fill="#424242"/>
</svg>
