<?xml version="1.0" encoding="utf-8"?>
<!-- Generator: Adobe Illustrator 23.0.6, SVG Export Plug-In . SVG Version: 6.00 Build 0)  -->
<svg version="1.1" id="Livello_1" xmlns="http://www.w3.org/2000/svg" xmlns:xlink="http://www.w3.org/1999/xlink" x="0px" y="0px"
	 viewBox="0 0 70 70" style="enable-background:new 0 0 70 70;" xml:space="preserve">
<style type="text/css">
	.st0{opacity:0;fill:#FFFFFF;}
	.st1{fill:#424242;}
</style>
<g id="Group_1308" transform="translate(-965 -364)">
	<rect id="Rectangle_1272" x="965" y="364" class="st0" width="70" height="70"/>
	<g id="logo_scuro" transform="translate(970.765 380.521)">
		<path id="Path_1" class="st1" d="M0,28.8l7-4c1.1,3.1,4.1,5.1,7.4,4.9c3.8,0,4.8-1.5,4.8-2.9c0-2.2-2-3-7.3-4.5
			c-5.3-1.5-10.4-4-10.4-10.8c0-6.8,5.8-10.8,11.9-10.8c5.5-0.2,10.6,3,12.9,8l-6.8,4c-1.2-2.5-2.9-4.1-6.1-4.1
			c-2.5,0-3.8,1.3-3.8,2.7c0,1.6,0.9,2.7,6.4,4.4c5.4,1.6,11.4,3.5,11.4,11c0,6.8-5.4,10.9-13.1,10.9C6.7,37.5,2,34,0,28.8z"/>
		<path id="Path_2" class="st1" d="M38.5,26.2v11.3h-7.6V1.8h7.6V26.2z"/>
		<path id="Path_4" class="st1" d="M39.5,24.7L48.2,12h8.9l-9.3,12.7l9.5,12.7h-8.7l-8.1-11.3L39.5,24.7z"/>
	</g>
</g>
</svg>
