<svg xmlns="http://www.w3.org/2000/svg" width="56.235" height="56" viewBox="0 0 56.235 56">
  <g id="Group_1274" data-name="Group 1274" transform="translate(-38.765 -26)">
    <rect id="Rectangle_1270" data-name="Rectangle 1270" width="56" height="56" transform="translate(39 26)" fill="none"/>
    <g id="logo_grigio_chiaro" data-name="logo grigio chiaro" transform="translate(38.765 35.521)">
      <path id="Path_1" data-name="Path 1" d="M0,44.419l6.816-3.953a7.243,7.243,0,0,0,7.257,4.789c3.752,0,4.688-1.478,4.688-2.816,0-2.12-1.973-2.963-7.164-4.394C6.46,36.613,1.424,34.145,1.424,27.522,1.424,20.853,7.056,17,13.029,17a13.4,13.4,0,0,1,12.642,7.806L19,28.706c-1.184-2.468-2.816-4-5.973-4-2.468,0-3.706,1.238-3.706,2.615,0,1.578.843,2.669,6.22,4.294,5.238,1.578,11.11,3.4,11.11,10.715,0,6.669-5.331,10.615-12.843,10.615C6.569,52.961,1.926,49.51,0,44.419Z" transform="translate(0 -16.265)" fill="#dbdbdb"/>
      <path id="Path_2" data-name="Path 2" d="M397.374,54.368V65.377H389.9V30.5h7.474V54.368Z" transform="translate(-359.734 -28.721)" fill="#dbdbdb"/>
      <path id="Path_4" data-name="Path 4" d="M499.4,171.756l8.534-12.456h8.719l-9.067,12.456,9.315,12.456h-8.472L500.46,173.2Z" transform="translate(-460.762 -147.556)" fill="#dbdbdb"/>
    </g>
  </g>
</svg>
