<?xml version="1.0" encoding="utf-8"?>
<!-- Generator: Adobe Illustrator 19.0.0, SVG Export Plug-In . SVG Version: 6.00 Build 0)  -->
<svg version="1.1" xmlns="http://www.w3.org/2000/svg" xmlns:xlink="http://www.w3.org/1999/xlink" x="0px" y="0px"
	 viewBox="0 0 3304.5 500" style="enable-background:new 0 0 3304.5 500;" xml:space="preserve">
<style type="text/css">
	.st0{display:none;}
	.st1{display:inline;fill:#FF1414;}
	.st2{fill:#0A0A0A;}
	.st3{fill:#FF6B35;}
</style>
<g id="Livello_2" class="st0">
	<rect x="1478.5" y="-1396" class="st1" width="598" height="197"/>
</g>
<g id="Livello_1">
	<path id="XMLID_69_" class="st2" d="M7.1,379.8l88.1-51.1c16,37,43.4,61.9,93.8,61.9c48.5,0,60.6-19.1,60.6-36.4
		c0-27.4-25.5-38.3-92.6-56.8C90.7,278.9,25.6,247,25.6,161.5c0-86.2,72.8-136,150-136c73.4,0,130.9,35.1,163.4,100.9l-86.2,50.4
		c-15.3-31.9-36.4-51.7-77.2-51.7c-31.9,0-47.9,16-47.9,33.8c0,20.4,10.9,34.5,80.4,55.5c67.7,20.4,143.6,44,143.6,138.5
		c0,86.2-68.9,137.2-166,137.2C92,490.2,32,445.5,7.1,379.8z"/>
	<path id="XMLID_98_" class="st2" d="M493.5,347.3v142.3h-96.6V38.9h96.6v269.8V347.3z"/>
	<path id="XMLID_100_" class="st2" d="M1068.9,170.5v319.2h-95.8v-30c-21.1,24.3-52.3,38.9-95.1,38.9
		c-83.6,0-152.6-73.4-152.6-168.5s68.9-168.5,152.6-168.5c42.8,0,74,14.7,95.1,38.9v-30H1068.9z M973.2,330.1
		c0-47.9-31.9-77.9-76-77.9c-44,0-76,30-76,77.9s31.9,77.9,76,77.9C941.3,407.9,973.2,377.9,973.2,330.1z"/>
	<path id="XMLID_103_" class="st3" d="M506.5,328.7l110.3-161h112.7l-117.2,161l120.4,161H623.2l-103-142.3L506.5,328.7z"/>
	<path id="XMLID_105_" class="st3" d="M3290.8,347.3l-103,142.3h-109.5l120.4-161l-117.2-161h112.7l110.3,161L3290.8,347.3z"/>
	<path id="XMLID_106_" class="st2" d="M1268.1,153h62.6v97h-62.6v239.7h-101V250H1122v-97h45.1c0-94.3,51.8-150.8,163.6-144.1v97
		C1293,102.5,1268.1,114,1268.1,153z"/>
	<path id="XMLID_108_" class="st2" d="M1522.5,153h62.6v97h-62.6v239.7h-101V250h-45.1v-97h45.1c0-94.3,51.8-150.8,163.6-144.1v97
		C1547.4,102.5,1522.5,114,1522.5,153z"/>
	<path id="XMLID_110_" class="st2" d="M1600.2,326.3c0-93.6,74.1-165.8,166.4-165.8c92.3,0,166.5,72.2,166.5,165.8
		s-74.1,165.8-166.5,165.8C1674.3,492.1,1600.2,419.9,1600.2,326.3z M1838.8,326.3c0-44.6-31.4-74.1-72.2-74.1
		c-40.8,0-72.2,29.5-72.2,74.1c0,44.6,31.4,74.1,72.2,74.1C1807.4,400.4,1838.8,370.9,1838.8,326.3z"/>
	<path id="XMLID_113_" class="st2" d="M2067.1,487.1h-95.8V40.3h95.8l0.7,447.1"/>
	<path id="XMLID_115_" class="st2" d="M2449.6,42.8v446.8h-95.8v-30c-21.1,24.3-52.3,38.9-95.1,38.9c-83.6,0-152.6-73.4-152.6-168.5
		s68.9-168.5,152.6-168.5c42.8,0,74,14.7,95.1,38.9V42.8H2449.6z M2353.9,330.1c0-47.9-31.9-77.9-76-77.9c-44,0-76,30-76,77.9
		s31.9,77.9,76,77.9C2322,407.9,2353.9,377.9,2353.9,330.1z"/>
	<path id="XMLID_118_" class="st2" d="M2668.9,404.7c26.2,0,48.5-10.2,61.3-24.3l76.6,44c-31.3,43.4-78.5,65.7-139.2,65.7
		c-109.2,0-176.8-73.4-176.8-168.5s68.9-168.5,169.8-168.5c93.2,0,162.1,72.1,162.1,168.5c0,13.4-1.3,26.2-3.8,38.3h-226.6
		C2604.5,393.2,2633.8,404.7,2668.9,404.7z M2727.7,288.5c-10.2-37-38.9-50.4-67.7-50.4c-36.4,0-60.6,17.9-69.6,50.4H2727.7z"/>
	<path id="XMLID_121_" class="st2" d="M3059.4,164.1v108.5c-39.6-6.4-95.8,9.6-95.8,72.8v144.3h-95.8V170.5h95.8v56.8
		C2976.4,184.5,3019.2,164.1,3059.4,164.1z"/>
	<g id="XMLID_1_">
	</g>
	<g id="XMLID_2_">
	</g>
	<g id="XMLID_3_">
	</g>
	<g id="XMLID_4_">
	</g>
	<g id="XMLID_5_">
	</g>
	<g id="XMLID_6_">
	</g>
</g>
</svg>
