<svg xmlns="http://www.w3.org/2000/svg" width="41.145" height="50.936" viewBox="0 0 41.145 50.936">
  <g id="Group_1312" data-name="Group 1312" transform="translate(-13.1 -3.3)">
    <g id="Group_1284" data-name="Group 1284" transform="translate(17.495 3.3)">
      <path id="Path_911" data-name="Path 911" d="M57.136,15.275,45.82,4.014A2.4,2.4,0,0,0,44.062,3.3h-19.5A3.518,3.518,0,0,0,21.1,6.761V46.148a3.518,3.518,0,0,0,3.461,3.461H54.389a3.518,3.518,0,0,0,3.461-3.461V17.033A2.815,2.815,0,0,0,57.136,15.275ZM45.93,8.354l6.812,6.812H46.424a.492.492,0,0,1-.494-.494ZM54.884,46.2a.644.644,0,0,1-.6.494H24.561a.492.492,0,0,1-.494-.494V6.761a.492.492,0,0,1,.494-.494H43.073v8.4a3.518,3.518,0,0,0,3.461,3.461h8.35Z" transform="translate(-21.1 -3.3)" fill="#424242"/>
    </g>
    <path id="Path_912" data-name="Path 912" d="M47.624,53.722a2.436,2.436,0,0,1-2.375,1.914H18.281A2.437,2.437,0,0,1,15.847,53.2V17.648a2.433,2.433,0,0,1,1.867-2.36V12.5A5.187,5.187,0,0,0,13.1,17.648V53.2a5.186,5.186,0,0,0,5.181,5.18H45.249A5.187,5.187,0,0,0,50.4,53.722Z" transform="translate(0 -4.146)" fill="#424242"/>
  </g>
</svg>
