<?xml version="1.0" encoding="utf-8"?>
<!-- Generator: Adobe Illustrator 19.0.0, SVG Export Plug-In . SVG Version: 6.00 Build 0)  -->
<svg version="1.1" id="Livello_1" xmlns="http://www.w3.org/2000/svg"  x="0px" y="0px"
	 viewBox="-134 134 130 133" style="enable-background:new -134 134 130 133;" xml:space="preserve">
<style type="text/css">
	.st0{fill:#202131;}
</style>
<g id="XMLID_471_">
	<g id="XMLID_515_">
		<path class="st0" d="M-131.3,150.2c32.8,32.8,65.6,65.6,98.4,98.4c4.7,4.7,9.4,9.4,14.2,14.2c9.5,9.5,24.2-5.2,14.7-14.7
			c-32.9-32.8-65.7-65.6-98.5-98.5c-4.7-4.7-9.4-9.4-14.2-14.2C-126.1,126-140.8,140.7-131.3,150.2L-131.3,150.2z"/>
	</g>
</g>
<g id="XMLID_499_">
	<g id="XMLID_522_">
		<path class="st0" d="M-19.8,136.5c-32.8,32.8-65.6,65.6-98.4,98.4c-4.7,4.7-9.4,9.4-14.2,14.2c-9.5,9.5,5.2,24.2,14.7,14.7
			c32.9-32.9,65.7-65.7,98.5-98.5c4.7-4.7,9.4-9.4,14.2-14.2C4.4,141.7-10.3,127-19.8,136.5L-19.8,136.5z"/>
	</g>
</g>
</svg>
