<?xml version="1.0"?>
<svg xmlns="http://www.w3.org/2000/svg" xmlns:xlink="http://www.w3.org/1999/xlink" version="1.1" id="Capa_1" x="0px" y="0px" viewBox="0 0 60 60" style="enable-background:new 0 0 60 60;" xml:space="preserve" width="512px" height="512px" class=""><g><g>
	<path d="M18,26c-2.206,0-4,1.794-4,4s1.794,4,4,4s4-1.794,4-4S20.206,26,18,26z" data-original="#000000" class="active-path" data-old_color="#000000" fill="#424242"/>
	<path d="M30,26c-2.206,0-4,1.794-4,4s1.794,4,4,4s4-1.794,4-4S32.206,26,30,26z" data-original="#000000" class="active-path" data-old_color="#000000" fill="#424242"/>
	<path d="M46,30c0-2.206-1.794-4-4-4s-4,1.794-4,4s1.794,4,4,4S46,32.206,46,30z" data-original="#000000" class="active-path" data-old_color="#000000" fill="#424242"/>
	<path d="M2.414,30l13.293-13.293c0.391-0.391,0.391-1.023,0-1.414s-1.023-0.391-1.414,0l-14,14c-0.391,0.391-0.391,1.023,0,1.414   l14,14C14.488,44.902,14.744,45,15,45s0.512-0.098,0.707-0.293c0.391-0.391,0.391-1.023,0-1.414L2.414,30z" data-original="#000000" class="active-path" data-old_color="#000000" fill="#424242"/>
	<path d="M59.707,29.293l-14-14c-0.391-0.391-1.023-0.391-1.414,0s-0.391,1.023,0,1.414L57.586,30L44.293,43.293   c-0.391,0.391-0.391,1.023,0,1.414C44.488,44.902,44.744,45,45,45s0.512-0.098,0.707-0.293l14-14   C60.098,30.316,60.098,29.684,59.707,29.293z" data-original="#000000" class="active-path" data-old_color="#000000" fill="#424242"/>
</g></g> </svg>
