<svg xmlns="http://www.w3.org/2000/svg" width="20.01" height="7.47" viewBox="0 0 20.01 7.47">
  <path id="Path_880" data-name="Path 880" d="M-8.21-3.78V-5.92h1.22a3.288,3.288,0,0,1,.52.04,1.21,1.21,0,0,1,.44.155.844.844,0,0,1,.3.325,1.142,1.142,0,0,1,.115.55,1.142,1.142,0,0,1-.115.55.844.844,0,0,1-.3.325,1.21,1.21,0,0,1-.44.155,3.288,3.288,0,0,1-.52.04ZM-9.78-7.14V0h1.57V-2.56h1.65a2.974,2.974,0,0,0,1.14-.195,2.133,2.133,0,0,0,.765-.515,1.972,1.972,0,0,0,.43-.735A2.715,2.715,0,0,0-4.09-4.85a2.7,2.7,0,0,0-.135-.85,1.978,1.978,0,0,0-.43-.73,2.133,2.133,0,0,0-.765-.515A2.974,2.974,0,0,0-6.56-7.14Zm7.93,3.6a3.907,3.907,0,0,1,.105-.91,2.41,2.41,0,0,1,.335-.785,1.7,1.7,0,0,1,.6-.55,1.833,1.833,0,0,1,.9-.2,1.833,1.833,0,0,1,.9.2,1.7,1.7,0,0,1,.6.55,2.41,2.41,0,0,1,.335.785,3.907,3.907,0,0,1,.105.91,3.635,3.635,0,0,1-.105.875A2.365,2.365,0,0,1,1.59-1.9a1.717,1.717,0,0,1-.6.545,1.833,1.833,0,0,1-.9.205,1.833,1.833,0,0,1-.9-.205,1.717,1.717,0,0,1-.6-.545,2.365,2.365,0,0,1-.335-.765A3.635,3.635,0,0,1-1.85-3.54Zm-1.57,0a4.312,4.312,0,0,0,.24,1.455A3.475,3.475,0,0,0-2.49-.91a3.161,3.161,0,0,0,1.105.785A3.661,3.661,0,0,0,.09.16,3.652,3.652,0,0,0,1.57-.125,3.172,3.172,0,0,0,2.67-.91a3.475,3.475,0,0,0,.69-1.175A4.312,4.312,0,0,0,3.6-3.54a4.461,4.461,0,0,0-.24-1.485A3.567,3.567,0,0,0,2.67-6.22a3.166,3.166,0,0,0-1.1-.8A3.6,3.6,0,0,0,.09-7.31a3.606,3.606,0,0,0-1.475.29,3.155,3.155,0,0,0-1.105.8,3.567,3.567,0,0,0-.69,1.195A4.461,4.461,0,0,0-3.42-3.54ZM5.74-2.37H4.22a2.358,2.358,0,0,0,.24,1.14,2.248,2.248,0,0,0,.675.79,2.88,2.88,0,0,0,.98.455A4.511,4.511,0,0,0,7.26.16,4.4,4.4,0,0,0,8.545-.01a2.717,2.717,0,0,0,.93-.475,1.977,1.977,0,0,0,.565-.725,2.182,2.182,0,0,0,.19-.91,1.75,1.75,0,0,0-.255-.985A2.13,2.13,0,0,0,9.37-3.72a2.66,2.66,0,0,0-.7-.335Q8.31-4.16,8.11-4.2q-.67-.17-1.085-.28a4.025,4.025,0,0,1-.65-.22.714.714,0,0,1-.315-.24.642.642,0,0,1-.08-.34.671.671,0,0,1,.1-.38.868.868,0,0,1,.255-.25,1.016,1.016,0,0,1,.345-.14,1.84,1.84,0,0,1,.38-.04,2.678,2.678,0,0,1,.535.05,1.29,1.29,0,0,1,.435.17.883.883,0,0,1,.3.33,1.262,1.262,0,0,1,.135.53H9.99a2.193,2.193,0,0,0-.235-1.055A2.049,2.049,0,0,0,9.12-6.78,2.681,2.681,0,0,0,8.2-7.185,4.542,4.542,0,0,0,7.13-7.31a3.658,3.658,0,0,0-.96.13,2.68,2.68,0,0,0-.86.4,2.129,2.129,0,0,0-.615.675,1.87,1.87,0,0,0-.235.955,1.746,1.746,0,0,0,.185.835,1.766,1.766,0,0,0,.485.575,2.68,2.68,0,0,0,.68.375,6.837,6.837,0,0,0,.78.245q.39.11.77.2a4.841,4.841,0,0,1,.68.21,1.467,1.467,0,0,1,.485.3.626.626,0,0,1,.185.47.69.69,0,0,1-.14.445.982.982,0,0,1-.35.275,1.566,1.566,0,0,1-.45.135,3.128,3.128,0,0,1-.45.035,2.387,2.387,0,0,1-.6-.075,1.493,1.493,0,0,1-.505-.23,1.136,1.136,0,0,1-.345-.4A1.31,1.31,0,0,1,5.74-2.37Z" transform="translate(9.78 7.31)" fill="#358eff"/>
</svg>
