<svg xmlns="http://www.w3.org/2000/svg" width="19.67" height="7.47" viewBox="0 0 19.67 7.47">
  <path id="Path_882" data-name="Path 882" d="M-4.24-.81l.16.81h1V-3.86h-3v1.17H-4.5a1.717,1.717,0,0,1-.495,1.145A1.7,1.7,0,0,1-6.2-1.15a1.833,1.833,0,0,1-.9-.205A1.717,1.717,0,0,1-7.7-1.9a2.365,2.365,0,0,1-.335-.765A3.635,3.635,0,0,1-8.14-3.54a3.907,3.907,0,0,1,.105-.91A2.41,2.41,0,0,1-7.7-5.235a1.7,1.7,0,0,1,.6-.55,1.833,1.833,0,0,1,.9-.2,1.57,1.57,0,0,1,.97.3,1.5,1.5,0,0,1,.54.9h1.5a2.665,2.665,0,0,0-.33-1.08A2.656,2.656,0,0,0-4.2-6.66a3.018,3.018,0,0,0-.93-.485A3.469,3.469,0,0,0-6.2-7.31a3.606,3.606,0,0,0-1.475.29,3.155,3.155,0,0,0-1.105.8,3.567,3.567,0,0,0-.69,1.195A4.461,4.461,0,0,0-9.71-3.54a4.312,4.312,0,0,0,.24,1.455A3.475,3.475,0,0,0-8.78-.91a3.161,3.161,0,0,0,1.105.785A3.661,3.661,0,0,0-6.2.16,2.631,2.631,0,0,0-5.17-.055,2.353,2.353,0,0,0-4.24-.81Zm2.43-6.33V0H3.61V-1.32H-.24V-3.07H3.22V-4.29H-.24V-5.82H3.53V-7.14ZM6.25-5.82V0H7.82V-5.82H9.96V-7.14H4.11v1.32Z" transform="translate(9.71 7.31)" fill="#60da9b"/>
</svg>
