<svg xmlns="http://www.w3.org/2000/svg" width="26.092" height="35.567" viewBox="0 0 26.092 35.567">
  <g id="delete_icon" data-name="delete icon" transform="translate(-759.209 -345.275)">
    <path id="Path_493" data-name="Path 493" d="M9.2,952.4a1.787,1.787,0,0,0-1.556,1.968v.824H18.4v-.824a1.787,1.787,0,0,0-1.556-1.968Zm-7.1,3.8a2.195,2.195,0,0,0-1.877,2.014L0,959.907H26.092l-.229-1.74a2.195,2.195,0,0,0-1.877-2.014H5.585C5.585,956.2,2.106,956.2,2.106,956.2Zm-1.19,4.715,3.2,25.039A2.195,2.195,0,0,0,6,987.967H20.1a2.24,2.24,0,0,0,1.877-2.014l3.2-25.039H.915Zm18.9,3.2h.046a.508.508,0,0,1,.5.5v.092L18.356,984.03a.506.506,0,1,1-1.007-.091v-.046l2.014-19.318a.493.493,0,0,1,.366-.458Zm-13.687,0a.452.452,0,0,1,.549.412v.045L8.7,983.893a.452.452,0,0,1-.412.549c-.275,0-.549-.137-.549-.412v-.046L5.722,964.667A.5.5,0,0,1,6.134,964.118ZM13,964.21a.507.507,0,0,1,.549.458v19.592a.506.506,0,1,1-1.007.091V964.759A.544.544,0,0,1,13,964.21Z" transform="translate(759.209 -607.125)" fill="#cb4747"/>
  </g>
</svg>
