<svg xmlns="http://www.w3.org/2000/svg" width="56.423" height="56.4" viewBox="0 0 56.423 56.4">
  <g id="Group_1302" data-name="Group 1302" transform="translate(0)">
    <path id="Path_891" data-name="Path 891" d="M194.932,273.2c0,.691-.027,1.381-.08,2.07q-.037.476-.092.951c-.015.133-.135.718-.016.149-.037.176-.052.358-.081.535a26.086,26.086,0,0,1-.941,3.888c-.2.627-.435,1.242-.681,1.853-.133.33.171-.381-.032.072-.062.139-.124.279-.187.418q-.218.475-.455.941a26.2,26.2,0,0,1-1.979,3.277,3.5,3.5,0,0,1-.575.782s.249-.314.11-.144c-.055.067-.107.135-.161.2q-.162.2-.327.4-.62.744-1.294,1.441t-1.4,1.342q-.337.3-.685.591-.174.145-.35.287l-.2.161c-.281.226.239-.176.041-.031a30.055,30.055,0,0,1-3.2,2.088q-.856.473-1.746.882c-.139.064-.278.125-.418.187-.453.2.258-.1-.072.032s-.651.26-.98.38a26.062,26.062,0,0,1-3.834,1.074q-.462.092-.927.167c-.156.025-.312.047-.468.071-.272.043.4-.048.121-.016l-.337.041q-1.021.117-2.05.154a26.566,26.566,0,0,1-4.06-.162l-.27-.033c-.227-.027.192.026.189.025-.174-.039-.359-.052-.535-.081q-.5-.081-.993-.181-.981-.2-1.945-.471t-1.885-.613c-.288-.106-.573-.219-.858-.333-.461-.185.252.114-.072-.03-.179-.08-.359-.159-.537-.241a26.19,26.19,0,0,1-3.355-1.86q-.407-.266-.8-.547a3.666,3.666,0,0,1-.782-.575c.193.256.232.182.093.07l-.2-.161q-.176-.142-.35-.287-.372-.31-.733-.634a26.4,26.4,0,0,1-2.683-2.79q-.144-.174-.286-.351c-.054-.067-.106-.136-.161-.2-.139-.17.115.147.11.144a3.721,3.721,0,0,1-.613-.834q-.56-.795-1.061-1.63t-.94-1.71q-.205-.408-.4-.824c-.064-.139-.125-.279-.187-.418-.03-.067-.153-.332-.03-.065.137.3-.039-.1-.051-.128a26.046,26.046,0,0,1-1.19-3.713q-.235-.979-.393-1.974c-.025-.155-.038-.315-.07-.468.114.546.009.058-.008-.081q-.064-.542-.1-1.087a26.611,26.611,0,0,1,.011-4.14q.038-.476.094-.951c.008-.068.016-.135.024-.2.044-.369-.025.09-.017.121a1.68,1.68,0,0,1,.081-.535q.161-.993.4-1.972a27.683,27.683,0,0,1,1.224-3.769c.131-.327-.153.342.032-.072.062-.139.124-.279.187-.418q.218-.475.455-.941.442-.87.948-1.705T150.983,259a3.392,3.392,0,0,1,.538-.729c-.029.021-.288.364-.07.093l.121-.152q.182-.227.368-.45a26.375,26.375,0,0,1,2.649-2.734q.361-.323.734-.632.174-.144.351-.286l.152-.121c.341-.274-.249.183-.041.031.523-.383,1.044-.765,1.587-1.119a26.247,26.247,0,0,1,3.419-1.879c.139-.063.279-.124.418-.186.321-.144-.348.139.072-.03.325-.131.652-.258.982-.378q.9-.326,1.825-.586.964-.271,1.947-.466.5-.1.994-.178a1.443,1.443,0,0,1,.468-.07c-.031-.008-.49.061-.121.017l.27-.032a26.593,26.593,0,0,1,4.13-.149q1.026.043,2.047.165c.089.011.18.026.27.034,0,0-.414-.06-.189-.024.156.024.312.046.468.071q.531.086,1.059.194a26.051,26.051,0,0,1,3.826,1.093c.288.107.572.221.857.335.327.131-.341-.154.072.032.159.072.319.141.477.215q.888.41,1.743.886t1.666,1.009q.406.267.8.549.185.131.367.266c.073.054.5.381.265.2s.136.109.207.166q.176.142.35.287.4.331.781.677.719.649,1.389,1.349.648.676,1.246,1.4.165.2.326.4c.04.051.079.1.12.152.169.2-.224-.306-.071-.092.188.263.387.518.574.783a26.241,26.241,0,0,1,2,3.34q.205.409.4.824c.073.159.142.319.214.478.023.051.121.259,0,.005-.133-.288.026.064.051.128q.371.916.672,1.858a26.1,26.1,0,0,1,.921,3.9c.012.079.1.6.043.273-.056-.3.021.18.033.277q.054.475.092.951c.054.689.079,1.379.08,2.07a1.973,1.973,0,0,0,3.946,0,28.2,28.2,0,0,0-5.119-16.2,28.728,28.728,0,0,0-13.514-10.339,28.159,28.159,0,0,0-31.259,8.5,28.585,28.585,0,0,0-6.448,15.965,28.171,28.171,0,0,0,16.322,27.687,28.7,28.7,0,0,0,17.555,2,28.192,28.192,0,0,0,22.1-23.133,30.426,30.426,0,0,0,.368-4.487,1.973,1.973,0,0,0-3.946,0Z" transform="translate(-142.455 -244.994)" fill="#c5c5c5"/>
    <path id="Path_892" data-name="Path 892" d="M408.472,335.625V366.41a1.973,1.973,0,1,0,3.945,0V335.625a1.973,1.973,0,0,0-3.945,0Z" transform="translate(-382.233 -324.905)" fill="#c5c5c5"/>
    <path id="Path_893" data-name="Path 893" d="M294.3,523.892l-4.889,4.889-7.756,7.756-1.793,1.793h2.79l-4.67-4.67-7.409-7.409-1.717-1.717a1.973,1.973,0,1,0-2.79,2.79l4.67,4.67,7.409,7.409,1.717,1.717a2,2,0,0,0,2.79,0l4.889-4.889,7.756-7.756,1.793-1.793a1.973,1.973,0,1,0-2.79-2.79Z" transform="translate(-253.362 -495.874)" fill="#c5c5c5"/>
  </g>
</svg>
