<svg xmlns="http://www.w3.org/2000/svg" width="64.577" height="64.569" viewBox="0 0 64.577 64.569">
  <g id="edit_grigio_chiaro" data-name="edit grigio chiaro" transform="translate(0 -0.028)">
    <path id="Path_600" data-name="Path 600" d="M60.394,4.207a14.242,14.242,0,0,0-20.157,0L3.279,41.151a1.849,1.849,0,0,0-.523,1.059L.018,62.492a1.843,1.843,0,0,0,.523,1.555,1.88,1.88,0,0,0,1.307.55,1.5,1.5,0,0,0,.248-.014l20.177-2.706a1.86,1.86,0,0,0-.5-3.687L4.022,60.565,5.935,46.421,20.822,61.308a1.88,1.88,0,0,0,1.307.55,1.822,1.822,0,0,0,1.307-.55L60.394,24.365a14.234,14.234,0,0,0,0-20.157ZM40.952,8.748l6.205,6.205L13.434,48.677,7.228,42.472ZM22.143,57.373l-6.068-6.068L49.8,17.581l6.068,6.068Zm36.311-36.38L43.608,6.147A10.547,10.547,0,0,1,58.454,20.994Z" fill="#dadada"/>
  </g>
</svg>
