<svg xmlns="http://www.w3.org/2000/svg" width="63.701" height="60.82" viewBox="0 0 63.701 60.82">
  <g id="external_link_grigio_chiaro" data-name="external link grigio chiaro" transform="translate(-45 -363.749)">
    <g id="Group_1" data-name="Group 1" transform="translate(-633.043 -114.501)">
      <path id="Path_601" data-name="Path 601" d="M721.384,539.07H679.543a1.5,1.5,0,0,1-1.5-1.5V496.386a1.5,1.5,0,0,1,1.5-1.5h32.8a1.5,1.5,0,0,1,0,3h-31.3V536.07h38.841V509.534a1.5,1.5,0,0,1,3,0V537.57A1.5,1.5,0,0,1,721.384,539.07Z" fill="#c5c5c5"/>
    </g>
    <path id="Path_603" data-name="Path 603" d="M40.7,42.492,32.59,50.6V22.74a1.957,1.957,0,0,0-1.94-1.94,1.813,1.813,0,0,0-1.764,1.94V50.781l-8.113-8.112a1.81,1.81,0,1,0-2.645,2.469L29.416,56.424c.176.176.353.353.529.353a1.5,1.5,0,0,0,1.411,0c.176-.176.353-.176.529-.353L43.172,45.138a1.7,1.7,0,0,0,0-2.469A1.579,1.579,0,0,0,40.7,42.492Z" transform="translate(80.874 434.923) rotate(-135)" fill="#c5c5c5"/>
  </g>
</svg>
