<?xml version="1.0" encoding="utf-8"?>
<!-- Generator: Adobe Illustrator 23.0.6, SVG Export Plug-In . SVG Version: 6.00 Build 0)  -->
<svg version="1.1" id="Livello_1" xmlns="http://www.w3.org/2000/svg" xmlns:xlink="http://www.w3.org/1999/xlink" x="0px" y="0px"
	 viewBox="0 0 56 50.9" style="enable-background:new 0 0 56 50.9;" xml:space="preserve">
<style type="text/css">
	.st0{opacity:0;fill:#FFFFFF;}
	.st1{fill:#DADADA;}
</style>
<rect y="0" class="st0" width="56" height="50.9"/>
<g id="Group_1301" transform="translate(-13.1 -3.3)">
	<g id="Group_1284" transform="translate(17.495 3.3)">
		<path id="Path_911" class="st1" d="M43.5,12L32.1,0.7C31.7,0.2,31,0,30.4,0H10.9C9,0,7.5,1.6,7.4,3.5v39.4c0,1.9,1.6,3.4,3.5,3.5
			h29.8c1.9,0,3.4-1.6,3.5-3.5V13.7C44.2,13.1,43.9,12.5,43.5,12z M32.3,5.1l6.8,6.8h-6.3c-0.3,0-0.5-0.2-0.5-0.5c0,0,0,0,0,0V5.1z
			 M41.2,42.9c-0.1,0.3-0.3,0.5-0.6,0.5H10.9c-0.3,0-0.5-0.2-0.5-0.5c0,0,0,0,0,0V3.5c0-0.3,0.2-0.5,0.5-0.5c0,0,0,0,0,0h18.5v8.4
			c0,1.9,1.6,3.4,3.5,3.5h8.4L41.2,42.9z"/>
	</g>
	<path id="Path_912" class="st1" d="M55.1,49.6c-0.2,1.1-1.2,1.9-2.4,1.9h-27c-1.3,0-2.4-1.1-2.4-2.4V13.5c0-1.1,0.8-2.1,1.9-2.4
		V8.4c-2.6,0.3-4.6,2.5-4.6,5.1v35.6c0,2.9,2.3,5.2,5.2,5.2h27c2.7,0,4.9-2,5.2-4.7H55.1z"/>
</g>
</svg>
