<svg xmlns="http://www.w3.org/2000/svg" width="67.035" height="39.928" viewBox="0 0 67.035 39.928">
  <g id="Group_1303" data-name="Group 1303" transform="translate(0)">
    <path id="Path_894" data-name="Path 894" d="M966.208,353.25l-5.832-5.832-9.252-9.252-2.139-2.139v3.328l5.571-5.571,8.839-8.839,2.048-2.048a2.353,2.353,0,0,0-3.328-3.328l-5.571,5.571-8.839,8.839-2.049,2.049a2.39,2.39,0,0,0,0,3.328l5.832,5.832,9.252,9.252,2.139,2.139a2.353,2.353,0,0,0,3.328-3.328Z" transform="translate(-944.981 -318.11)" fill="#c5c5c5"/>
    <path id="Path_895" data-name="Path 895" d="M1403.244,315.745l5.832,5.832,9.252,9.252,2.139,2.139V329.64l-5.571,5.571-8.839,8.839-2.048,2.049a2.353,2.353,0,0,0,3.328,3.328l5.571-5.571,8.839-8.839,2.048-2.048a2.389,2.389,0,0,0,0-3.328l-5.832-5.832-9.252-9.252-2.139-2.139a2.353,2.353,0,0,0-3.328,3.328Z" transform="translate(-1357.435 -311.659)" fill="#c5c5c5"/>
    <path id="Path_896" data-name="Path 896" d="M1214.253,312.158c-1.347,3.938-2.953,8.734-4.3,12.671l-6.429,18.8-1.462,4.276a2.167,2.167,0,0,0,1.075,2.8,2.144,2.144,0,0,0,2.8-1.075l4.04-11.814,6.429-18.8c.487-1.425,1.235-3.708,1.722-5.134a2.167,2.167,0,0,0-1.075-2.8,2.144,2.144,0,0,0-2.8,1.075Z" transform="translate(-1176.576 -310.929)" fill="#c5c5c5"/>
  </g>
</svg>
