<svg xmlns="http://www.w3.org/2000/svg" width="37.244" height="45.521" viewBox="0 0 37.244 45.521">
  <g id="Group_1307" data-name="Group 1307" transform="translate(-32 -28)">
    <g id="Group_1281" data-name="Group 1281" transform="translate(32 28)">
      <path id="Path_909" data-name="Path 909" d="M69.244,71.452a2.069,2.069,0,1,1-4.138,0,14.484,14.484,0,0,0-28.968,0,2.069,2.069,0,1,1-4.138,0,18.622,18.622,0,0,1,37.244,0ZM50.622,50.76A11.38,11.38,0,1,1,62,39.38,11.38,11.38,0,0,1,50.622,50.76Zm0-4.138A7.242,7.242,0,1,0,43.38,39.38,7.242,7.242,0,0,0,50.622,46.622Z" transform="translate(-32 -28)" fill="#c5c5c5"/>
    </g>
  </g>
</svg>
