<?xml version="1.0" encoding="utf-8"?>
<!-- Generator: Adobe Illustrator 19.0.0, SVG Export Plug-In . SVG Version: 6.00 Build 0)  -->
<svg version="1.1" xmlns="http://www.w3.org/2000/svg" xmlns:xlink="http://www.w3.org/1999/xlink" x="0px" y="0px"
	 viewBox="-300 -100 1300 600" style="enable-background:new 0 0 1000 1000;" xml:space="preserve">
<style type="text/css">
	.st0{display:none;}
	.st1{display:inline;fill:#FF1414;}
	.st2{fill:#FFFFFF;}
	.st3{fill:#FF6B35;}
</style>
<g id="Livello_2" class="st0">
	<rect x="-1897" y="-1396" class="st1" width="598" height="197"/>
</g>
<g id="Livello_1">
	<path id="XMLID_1_" class="st2" d="M7.4,371.5l86.2-50c15.6,36.2,42.5,60.6,91.8,60.6c47.5,0,59.3-18.7,59.3-35.6
		c0-26.9-25-37.5-90.6-55.6c-65-18.1-128.7-49.3-128.7-133c0-84.3,71.2-133,146.8-133c71.8,0,128.1,34.4,159.9,98.7l-84.3,49.3
		c-15-31.2-35.6-50.6-75.6-50.6c-31.2,0-46.8,15.6-46.8,33.1c0,20,10.6,33.7,78.7,54.3c66.2,20,140.5,43.1,140.5,135.5
		c0,84.3-67.5,134.3-162.4,134.3C90.4,479.5,31.7,435.8,7.4,371.5z"/>
	<path id="XMLID_3_" class="st2" d="M483.4,339.7V479h-94.5V37.9h94.5v264V339.7z"/>
	<path id="XMLID_5_" class="st3" d="M496.1,321.4L604,163.9h110.3L599.6,321.4L717.4,479H610.3L509.5,339.7L496.1,321.4z"/>
	<g id="XMLID_7_">
	</g>
	<g id="XMLID_8_">
	</g>
	<g id="XMLID_9_">
	</g>
	<g id="XMLID_10_">
	</g>
	<g id="XMLID_11_">
	</g>
	<g id="XMLID_12_">
	</g>
</g>
</svg>
