<svg xmlns="http://www.w3.org/2000/svg" width="53.684" height="49.753" viewBox="0 0 53.684 49.753">
  <g id="upload_grigio" data-name="upload grigio" transform="translate(0 -17.25)">
    <g id="Group_4" data-name="Group 4" transform="translate(0 17.25)">
      <path id="Path_619" data-name="Path 619" d="M52.146,228.378a1.532,1.532,0,0,0-1.538,1.538v13.991a6.9,6.9,0,0,1-6.893,6.893H9.969a6.9,6.9,0,0,1-6.893-6.893V229.688a1.538,1.538,0,1,0-3.076,0v14.219a9.98,9.98,0,0,0,9.969,9.969H43.715a9.98,9.98,0,0,0,9.969-9.969V229.916A1.539,1.539,0,0,0,52.146,228.378Z" transform="translate(0 -204.122)" fill="#c5c5c5"/>
      <path id="Path_620" data-name="Path 620" d="M138.943,29.657,146.1,22.5V53.708a1.538,1.538,0,1,0,3.076,0V22.5l7.155,7.155a1.548,1.548,0,0,0,1.082.456,1.482,1.482,0,0,0,1.082-.456,1.533,1.533,0,0,0,0-2.176l-9.775-9.775a1.556,1.556,0,0,0-1.082-.456,1.49,1.49,0,0,0-1.082.456l-9.775,9.775a1.535,1.535,0,0,0,2.165,2.176Z" transform="translate(-120.793 -17.25)" fill="#c5c5c5"/>
    </g>
  </g>
</svg>
